<svg xmlns="http://www.w3.org/2000/svg" viewBox="0 0 1920 1080"><defs><style>.cls-1{isolation:isolate;}.cls-2{fill:#fff4e6;}.cls-3{mix-blend-mode:multiply;}.cls-10,.cls-11,.cls-12,.cls-15,.cls-16,.cls-4,.cls-8,.cls-9{fill:none;}.cls-10,.cls-11,.cls-12,.cls-13,.cls-14,.cls-15,.cls-16,.cls-4,.cls-5,.cls-8,.cls-9{stroke:#247ab3;}.cls-10,.cls-12,.cls-13,.cls-4,.cls-5,.cls-8{stroke-miterlimit:10;}.cls-13,.cls-14,.cls-5,.cls-6{fill:#fff;}.cls-7{fill:#247ab3;}.cls-11,.cls-12,.cls-13,.cls-14,.cls-15,.cls-8,.cls-9{stroke-linecap:round;}.cls-11,.cls-14,.cls-15,.cls-16,.cls-9{stroke-linejoin:round;}.cls-10,.cls-11,.cls-12{stroke-width:0.91px;}.cls-15{stroke-width:0.6px;}</style></defs><title>Artboard 7</title><g class="cls-1"><g id="Layer_3" data-name="Layer 3"><rect class="cls-2" x="-30.59" y="-13.37" width="1976.24" height="1100.41"/><g class="cls-3"><line class="cls-4" x1="854.79" y1="508.09" x2="854.79" y2="570.2"/><line class="cls-4" x1="854.79" y1="574.65" x2="854.79" y2="650.44"/><line class="cls-4" x1="863.68" y1="506.94" x2="863.68" y2="621.34"/><line class="cls-4" x1="863.68" y1="653.99" x2="863.68" y2="625.79"/><line class="cls-4" x1="872.57" y1="505.61" x2="872.57" y2="539.07"/><line class="cls-4" x1="872.57" y1="543.52" x2="872.57" y2="565.75"/><line class="cls-4" x1="872.57" y1="653.4" x2="872.57" y2="570.2"/><line class="cls-4" x1="881.47" y1="505.03" x2="881.47" y2="574.65"/><line class="cls-4" x1="881.47" y1="652.51" x2="881.47" y2="579.09"/><line class="cls-4" x1="890.36" y1="504.27" x2="890.36" y2="547.97"/><line class="cls-4" x1="890.36" y1="552.41" x2="890.36" y2="621.34"/><line class="cls-4" x1="890.36" y1="651.33" x2="890.36" y2="625.79"/><line class="cls-4" x1="899.26" y1="504.27" x2="899.26" y2="514.61"/><line class="cls-4" x1="899.26" y1="519.06" x2="899.26" y2="556.86"/><line class="cls-4" x1="899.26" y1="650.15" x2="899.26" y2="561.31"/><line class="cls-4" x1="908.15" y1="504.27" x2="908.15" y2="596.88"/><line class="cls-4" x1="908.15" y1="648.96" x2="908.15" y2="601.33"/><line class="cls-4" x1="917.04" y1="504.27" x2="917.04" y2="534.62"/><line class="cls-4" x1="917.04" y1="539.07" x2="917.04" y2="572.42"/><line class="cls-4" x1="917.04" y1="647.78" x2="917.04" y2="576.87"/><line class="cls-4" x1="934.83" y1="507.24" x2="934.83" y2="533.92"/><line class="cls-4" x1="934.83" y1="538.37" x2="934.83" y2="569.5"/><line class="cls-4" x1="934.83" y1="650.42" x2="934.83" y2="573.94"/><line class="cls-4" x1="925.94" y1="504.65" x2="925.94" y2="609.52"/><line class="cls-4" x1="925.94" y1="649.26" x2="925.94" y2="613.97"/><line class="cls-4" x1="943.38" y1="504.65" x2="943.38" y2="593.06"/><line class="cls-4" x1="943.38" y1="650.87" x2="943.38" y2="597.5"/><rect class="cls-4" x="744.33" y="477.58" width="320.18" height="2.4"/><rect class="cls-4" x="744.33" y="490.92" width="320.18" height="4.45"/><rect class="cls-4" x="744.33" y="477.58" width="320.18" height="17.79"/><polyline class="cls-5" points="851.06 499.36 851.06 495.37 851.06 477.58 851.06 474.24 851.06 468.69 851.06 465.35 864.08 465.35 864.08 468.69 864.08 474.24 864.08 477.58 864.08 495.37 864.08 497.65"/><rect class="cls-5" x="849.55" y="468.88" width="16.04" height="5.17"/><rect class="cls-5" x="757.67" y="495.37" width="4.45" height="35.58"/><rect class="cls-5" x="755.45" y="495.37" width="8.89" height="4.45"/><polyline class="cls-5" points="779.91 526.37 779.91 518.16 779.91 495.37 784.35 495.37 784.35 516.47 784.35 524.55"/><rect class="cls-5" x="777.68" y="495.37" width="8.89" height="4.45"/><path class="cls-5" d="M806.59,495.37v21.2c-1.49.46-3,.93-4.45,1.45V495.37Z"/><rect class="cls-5" x="799.92" y="495.37" width="8.89" height="4.45"/><polyline class="cls-5" points="824.38 511.49 824.38 504.47 824.38 495.37 828.82 495.37 828.82 503.47 828.82 510.41"/><rect class="cls-5" x="822.15" y="495.37" width="8.89" height="4.45"/><polyline class="cls-5" points="980.02 510.41 980.02 503.47 980.02 495.37 984.47 495.37 984.47 504.47 984.47 511.49"/><rect class="cls-5" x="977.8" y="495.37" width="8.89" height="4.45"/><polyline class="cls-5" points="1002.26 516.57 1002.26 509.14 1002.26 495.37 1006.7 495.37 1006.7 510.46 1006.7 518.01"/><rect class="cls-5" x="1000.03" y="495.37" width="8.89" height="4.45"/><polyline class="cls-5" points="1024.49 524.55 1024.49 516.47 1024.49 495.37 1028.94 495.37 1028.94 518.16 1028.94 526.37"/><rect class="cls-5" x="1022.27" y="495.37" width="8.89" height="4.45"/><rect class="cls-5" x="1046.73" y="495.37" width="4.45" height="35.58"/><rect class="cls-5" x="1044.5" y="495.37" width="8.89" height="4.45"/><line class="cls-4" x1="753.23" y1="482.03" x2="753.23" y2="490.92"/><line class="cls-4" x1="762.12" y1="482.03" x2="762.12" y2="490.92"/><line class="cls-4" x1="771.01" y1="482.03" x2="771.01" y2="490.92"/><line class="cls-4" x1="779.91" y1="482.03" x2="779.91" y2="490.92"/><line class="cls-4" x1="788.8" y1="482.03" x2="788.8" y2="490.92"/><line class="cls-4" x1="797.7" y1="482.03" x2="797.7" y2="490.92"/><line class="cls-4" x1="806.59" y1="482.03" x2="806.59" y2="490.92"/><line class="cls-4" x1="815.48" y1="482.03" x2="815.48" y2="490.92"/><line class="cls-4" x1="824.38" y1="482.03" x2="824.38" y2="490.92"/><line class="cls-4" x1="833.27" y1="482.03" x2="833.27" y2="490.92"/><line class="cls-4" x1="842.17" y1="482.03" x2="842.17" y2="490.92"/><line class="cls-4" x1="966.68" y1="482.03" x2="966.68" y2="490.92"/><line class="cls-4" x1="975.57" y1="482.03" x2="975.57" y2="490.92"/><line class="cls-4" x1="984.47" y1="482.03" x2="984.47" y2="490.92"/><line class="cls-4" x1="993.36" y1="482.03" x2="993.36" y2="490.92"/><line class="cls-4" x1="1002.26" y1="482.03" x2="1002.26" y2="490.92"/><line class="cls-4" x1="1011.15" y1="482.03" x2="1011.15" y2="490.92"/><line class="cls-4" x1="1020.04" y1="482.03" x2="1020.04" y2="490.92"/><line class="cls-4" x1="1028.94" y1="482.03" x2="1028.94" y2="490.92"/><line class="cls-4" x1="1037.83" y1="482.03" x2="1037.83" y2="490.92"/><line class="cls-4" x1="1046.73" y1="482.03" x2="1046.73" y2="490.92"/><line class="cls-4" x1="1055.62" y1="490.92" x2="1055.62" y2="482.03"/><line class="cls-4" x1="1060.07" y1="482.03" x2="1060.07" y2="490.92"/><line class="cls-4" x1="868.85" y1="482.03" x2="868.85" y2="490.92"/><line class="cls-4" x1="877.74" y1="482.03" x2="877.74" y2="490.92"/><line class="cls-4" x1="886.64" y1="482.03" x2="886.64" y2="490.92"/><line class="cls-4" x1="895.53" y1="482.03" x2="895.53" y2="490.92"/><line class="cls-4" x1="904.42" y1="482.03" x2="904.42" y2="490.92"/><line class="cls-4" x1="913.32" y1="482.03" x2="913.32" y2="490.92"/><line class="cls-4" x1="922.21" y1="482.03" x2="922.21" y2="490.92"/><line class="cls-4" x1="931.11" y1="482.03" x2="931.11" y2="490.92"/><line class="cls-4" x1="940" y1="482.03" x2="940" y2="490.92"/><polyline class="cls-5" points="944.74 497.65 944.74 495.37 944.74 477.58 944.74 474.24 944.74 468.69 944.74 465.35 957.76 465.35 957.76 468.69 957.76 474.24 957.76 477.58 957.76 495.37 957.76 499.36"/><rect class="cls-5" x="943.23" y="468.88" width="16.04" height="5.17" transform="translate(1902.5 942.93) rotate(180)"/><path class="cls-5" d="M1064.51,543.38q-6.55-3.52-13.34-6.76c-1.48-.71-3-1.4-4.45-2.08q-8.72-4-17.79-7.49c-1.48-.58-3-1.15-4.45-1.69q-8.74-3.24-17.79-6c-1.48-.46-3-.9-4.45-1.32q-8.77-2.57-17.79-4.67c-1.48-.34-3-.68-4.45-1q-11-2.4-22.23-4.11l-.5-.07q-6.2-1-12.52-1.65a358.25,358.25,0,0,0-80.69,0q-6.3.7-12.52,1.65l-.5.07q-11.27,1.7-22.23,4.11c-1.49.32-3,.66-4.45,1q-9,2.1-17.79,4.67c-1.49.42-3,.87-4.45,1.32q-9,2.75-17.79,6c-1.49.54-3,1.11-4.45,1.69q-9.07,3.49-17.79,7.49c-1.49.68-3,1.37-4.45,2.08q-6.79,3.24-13.34,6.76v-8.89q6.55-3.52,13.34-6.76c1.48-.71,3-1.4,4.45-2.08q8.72-4,17.79-7.49c1.48-.58,3-1.15,4.45-1.69q8.74-3.24,17.79-6c1.48-.46,3-.9,4.45-1.32q8.77-2.57,17.79-4.67c1.48-.34,3-.68,4.45-1q11-2.4,22.23-4.11l.5-.07q6.2-1,12.52-1.65a358.25,358.25,0,0,1,80.69,0q6.3.7,12.52,1.65l.5.07q11.27,1.7,22.23,4.11c1.49.32,3,.66,4.45,1q9,2.1,17.79,4.67c1.49.42,3,.87,4.45,1.32q9,2.75,17.79,6c1.49.54,3,1.11,4.45,1.69q9.07,3.49,17.79,7.49c1.49.68,3,1.37,4.45,2.08q6.79,3.24,13.34,6.76Z"/><polyline class="cls-6" points="970.41 658.44 1028.22 542.82 1048.95 499.81 1068.24 467.22 1081.58 449.43 1090.48 738.48"/><path class="cls-6" d="M703.59,698.46l26.68-231.24,23,10.36,12.27,17.64s-4.1,20.91.35,25.36,13.34,22.23,13.34,26.68,8.89,44.47,8.89,44.47L819.21,614l35.58,40"/><line class="cls-4" x1="930.39" y1="649.54" x2="930.39" y2="680.67"/><line class="cls-4" x1="859.23" y1="653.99" x2="859.23" y2="765.16"/><line class="cls-4" x1="859.23" y1="769.61" x2="858.88" y2="818.78"/><line class="cls-4" x1="868.13" y1="653.99" x2="868.13" y2="698.46"/><line class="cls-4" x1="868.13" y1="702.91" x2="868.13" y2="818.53"/><line class="cls-4" x1="877.02" y1="651.77" x2="877.02" y2="736.26"/><line class="cls-4" x1="877.02" y1="740.71" x2="877.02" y2="818.53"/><line class="cls-4" x1="885.92" y1="651.77" x2="885.92" y2="674"/><line class="cls-4" x1="885.92" y1="678.45" x2="885.57" y2="818.78"/><line class="cls-4" x1="894.81" y1="649.54" x2="894.81" y2="736.26"/><line class="cls-4" x1="894.81" y1="740.71" x2="894.81" y2="818.53"/><line class="cls-4" x1="903.7" y1="649.54" x2="903.7" y2="722.92"/><line class="cls-4" x1="903.7" y1="727.36" x2="903.7" y2="818.53"/><line class="cls-4" x1="912.6" y1="647.32" x2="912.6" y2="778.51"/><line class="cls-4" x1="912.6" y1="782.95" x2="912.25" y2="818.78"/><line class="cls-4" x1="921.49" y1="647.32" x2="921.49" y2="745.15"/><line class="cls-4" x1="921.49" y1="749.6" x2="921.14" y2="818.78"/><line class="cls-4" x1="930.39" y1="685.12" x2="930.39" y2="818.53"/><line class="cls-4" x1="939.28" y1="649.54" x2="939.28" y2="765.16"/><line class="cls-4" x1="948.17" y1="651.77" x2="948.17" y2="698.46"/><line class="cls-4" x1="957.07" y1="653.99" x2="957.07" y2="711.8"/><line class="cls-4" x1="965.96" y1="655.65" x2="965.96" y2="796.29"/><line class="cls-4" x1="974.86" y1="653.99" x2="974.86" y2="711.8"/><line class="cls-4" x1="939.28" y1="769.61" x2="938.93" y2="818.78"/><line class="cls-4" x1="948.17" y1="702.91" x2="948.17" y2="818.53"/><line class="cls-4" x1="957.07" y1="716.25" x2="957.07" y2="818.53"/><line class="cls-4" x1="965.96" y1="800.74" x2="965.61" y2="818.78"/><line class="cls-4" x1="974.86" y1="716.25" x2="974.86" y2="818.53"/><path class="cls-4" d="M854.44,649.54,818.86,614,805.52,579.5s-26.68-27.79-26.68-32.24S769.94,525,765.5,520.58s0-25.21,0-25.21l-12.62-17.79-7.15-3.74"/><polyline class="cls-5" points="974.86 653.99 988.2 622.86 1003.76 600.63 1014.88 565.05 1028.22 538.37 1053.4 495.37 1072.69 462.77 1086.03 444.98 1107.91 425.61 1134.51 420.2"/><path class="cls-7" d="M604.88,777.65a8.59,8.59,0,0,1,0,17.17h-6.23V777.65Zm0,3.44h-2.8v10.3h2.8a5.15,5.15,0,0,0,0-10.3Z"/><path class="cls-7" d="M564.47,946a8.88,8.88,0,1,1,0,17.77H559.6v7.67h-5.09V946Zm0,5.09H559.6v7.59h4.87a3.8,3.8,0,1,0,0-7.59Z"/><path class="cls-7" d="M663.94,946a12.72,12.72,0,1,1-12.72,12.72A12.42,12.42,0,0,1,663.94,946Zm0,5.09a7.63,7.63,0,1,0,7.63,7.63A7.33,7.33,0,0,0,663.94,951Z"/><path class="cls-7" d="M764.61,971.39V946h10.83a8.48,8.48,0,0,1,3.05,16.39l6,9h-6.21l-5.45-8.5H769.7v8.5ZM775.44,951H769.7v6.76h5.74a3.38,3.38,0,0,0,0-6.76Z"/><path class="cls-7" d="M890.29,951v20.35H885.2V951H876V946h23.47V951Z"/><path class="cls-7" d="M999.71,946V966.3h11.56v5.09H994.62V946Z"/><path class="cls-7" d="M1121.53,967.39h-13.37l-1.85,4h-5.6L1112.48,946h4.72L1129,971.39h-5.6Zm-11-5.09h8.65l-4.32-9.37Z"/><path class="cls-7" d="M1236.41,946v25.44H1232l-13.74-16.72v16.72h-5.09V946h4.43l13.74,16.72V946Z"/><path class="cls-7" d="M1341.69,946c7.19,0,12.46,5.38,12.46,12.72s-5.27,12.72-12.46,12.72h-9.23V946Zm0,5.09h-4.14V966.3h4.14c4.36,0,7.38-3.23,7.38-7.63S1346.06,951,1341.69,951Z"/><path class="cls-7" d="M556.39,907.81V888.74H564a6,6,0,0,1,6.21,6.1,5.85,5.85,0,0,1-4.3,5.83l4.85,7.14h-3.87l-4.52-6.87H559.5v6.87Zm7.63-16H559.5v6H564a3,3,0,1,0,0-6Z"/><path class="cls-7" d="M638.84,904.62h-11l-1.47,3.19H623l8.85-19.07h3l8.85,19.07h-3.4Zm-9.54-3.11h8.09l-4.06-8.72Z"/><path class="cls-7" d="M705.65,888.74a9.54,9.54,0,0,1,0,19.07h-6.73V888.74Zm0,3.11H702v12.86h3.62a6.43,6.43,0,0,0,0-12.86Z"/><path class="cls-7" d="M785.71,888.74v3.11H776.8v4.88h8.91v3.11H776.8v4.88h8.91v3.11h-12V888.74Z"/><path class="cls-7" d="M846,907.81V888.74h7.63a6,6,0,0,1,6.21,6.1,5.85,5.85,0,0,1-4.3,5.83l4.85,7.14H856.5L852,900.95h-2.89v6.87Zm7.63-16h-4.52v6h4.52a3,3,0,1,0,0-6Z"/><path class="cls-7" d="M921.35,907.81h-3.11V888.74h3.05l8.61,15,8.58-15h3.05v19.07h-3.11V895.2l-7.22,12.61h-2.64l-7.22-12.61Z"/><path class="cls-7" d="M1012.06,904.62h-11l-1.47,3.19H996.2l8.85-19.07h3l8.85,19.07h-3.4Zm-9.54-3.11h8.09l-4.06-8.72Z"/><path class="cls-7" d="M1088.65,888.74v19.07h-2.86l-11.28-13.87v13.87h-3.11V888.74h2.86l11.28,13.89V888.74Z"/><path class="cls-7" d="M1156.07,888.74a9.54,9.54,0,1,1-9.54,9.54A9.29,9.29,0,0,1,1156.07,888.74Zm0,3.11a6.43,6.43,0,1,0,6.43,6.43A6.21,6.21,0,0,0,1156.07,891.85Z"/><path class="cls-7" d="M1277.92,888.74v19.07h-3.11V888.74Z"/><path class="cls-7" d="M1354.21,888.74v19.07h-2.86l-11.28-13.87v13.87H1337V888.74h2.86l11.28,13.89V888.74Z"/><path class="cls-7" d="M1299.94,794.82h-3.43V777.65h3.31l7.24,12.68,7.21-12.68h3.31v17.17h-3.43v-10l-5.69,10h-2.82l-5.69-10Z"/><ellipse class="cls-4" cx="1246.88" cy="701.47" rx="19.09" ry="6.36"/><path class="cls-4" d="M1230.14,704.53c3.25-2,9.52-3.3,16.74-3.3s13.51,1.33,16.75,3.3"/><path class="cls-4" d="M1227.79,701.47v19.09a19.09,19.09,0,0,0,19.09,19.09h0A19.09,19.09,0,0,0,1266,720.56V701.47c0,3.52-8.55,6.36-19.09,6.36S1227.79,705,1227.79,701.47Z"/><path class="cls-4" d="M1266,711.41h0a5.17,5.17,0,0,1,0,10.34h-.06m0-15.51h0a10.34,10.34,0,0,1,0,20.69c-.37,0-.74,0-1.09-.06"/><circle class="cls-8" cx="1246.88" cy="720.22" r="7.97"/><path class="cls-8" d="M1239,672.62c0,2.94-2,2.94-2,5.88s2,2.94,2,5.88-2,2.94-2,5.88"/><path class="cls-8" d="M1248.71,669.21c0,3.51-2,3.51-2,7s2,3.51,2,7-2,3.51-2,7"/><path class="cls-8" d="M1258.44,672.62c0,2.94-2,2.94-2,5.88s2,2.94,2,5.88-2,2.94-2,5.88"/><path class="cls-9" d="M834.79,743.8a14.54,14.54,0,0,1-14.2,11.77l-4,0a14.55,14.55,0,0,1-13.9-19.07L804,732.3a21.92,21.92,0,0,0,.58-11.53c1.06,2.21,6.83,3.88,13.79,3.84s12.71-1.77,13.74-4a21.95,21.95,0,0,0,.7,11.52l1.42,4.2A14.52,14.52,0,0,1,834.79,743.8Z"/><path class="cls-10" d="M832.46,720.07l0,.36h0c-.56,2.41-6.61,4.31-14,4.31s-13.42-1.9-14-4.31h0l0-.36a1.36,1.36,0,0,1,0-.32,3.78,3.78,0,0,1-.1-.85,4.05,4.05,0,0,1,4.06-4,3.77,3.77,0,0,1,.94.11,4.83,4.83,0,0,1,4.72-3.83,4.78,4.78,0,0,1,3.76,1.82,4.12,4.12,0,0,1,1.35-.22,4.26,4.26,0,0,0,6.42.5,4.27,4.27,0,0,1,3.93,2.61,3.67,3.67,0,0,1,2.93,3.41S832.46,719.8,832.46,720.07Z"/><path class="cls-11" d="M693,628h0l0-.29a1.08,1.08,0,0,0,0-.25,3,3,0,0,0,.08-.68,3.21,3.21,0,0,0-3.22-3.21,3,3,0,0,0-.74.09,3.83,3.83,0,0,0-3.74-3,3.79,3.79,0,0,0-3,1.44,3.27,3.27,0,0,0-1.07-.18,3.38,3.38,0,0,1-5.09.4,3.38,3.38,0,0,0-3.12,2.07,2.91,2.91,0,0,0-2.33,2.71s0,.43,0,.65l0,.29h0"/><line class="cls-12" x1="826.99" y1="724.21" x2="826.99" y2="731.21"/><line class="cls-12" x1="823.65" y1="724.54" x2="823.65" y2="736.05"/><polyline class="cls-4" points="746.69 473.69 547.6 818.53 1365.76 818.53 1134.6 419.62"/><polyline class="cls-4" points="605 719.11 662.39 818.53 547.6 818.53"/><polyline class="cls-4" points="1365.84 818.53 1251.05 818.53 1308.44 719.11"/><path class="cls-5" d="M1041.9,296.47a91.15,91.15,0,0,1-91.15,91.15c-1.82,0-3.64-.06-5.43-.17A84.21,84.21,0,1,0,861.54,277.7a91.16,91.16,0,0,1,180.36,18.77Z"/><line class="cls-4" x1="1035.57" y1="383.9" x2="1035.57" y2="377.39"/><line class="cls-4" x1="1038.83" y1="380.65" x2="1032.32" y2="380.65"/><line class="cls-4" x1="870.39" y1="222.13" x2="866.33" y2="217.04"/><line class="cls-4" x1="870.9" y1="217.55" x2="865.82" y2="221.62"/><line class="cls-4" x1="1086.3" y1="355.62" x2="1086.3" y2="349.11"/><line class="cls-4" x1="1089.56" y1="352.36" x2="1083.05" y2="352.36"/><line class="cls-4" x1="943.05" y1="157.59" x2="943.05" y2="151.08"/><line class="cls-4" x1="946.3" y1="154.34" x2="939.79" y2="154.34"/><line class="cls-4" x1="1065.73" y1="315.76" x2="1065.73" y2="309.25"/><line class="cls-4" x1="1068.98" y1="312.51" x2="1062.48" y2="312.51"/><line class="cls-4" x1="894.89" y1="183.34" x2="894.89" y2="176.83"/><line class="cls-4" x1="898.15" y1="180.09" x2="891.64" y2="180.09"/><line class="cls-4" x1="836.2" y1="297.61" x2="832.82" y2="292.05"/><line class="cls-4" x1="837.29" y1="293.14" x2="831.73" y2="296.52"/><line class="cls-4" x1="1011.73" y1="205.19" x2="1011.73" y2="198.68"/><line class="cls-4" x1="1014.99" y1="201.94" x2="1008.48" y2="201.94"/><line class="cls-4" x1="965.45" y1="122.91" x2="965.45" y2="116.4"/><line class="cls-4" x1="968.7" y1="119.65" x2="962.19" y2="119.65"/><line class="cls-4" x1="781.07" y1="416.64" x2="782.7" y2="410.33"/><line class="cls-4" x1="785.03" y1="414.3" x2="778.73" y2="412.67"/><line class="cls-4" x1="911.06" y1="449.03" x2="911.06" y2="442.53"/><line class="cls-4" x1="914.31" y1="445.78" x2="907.8" y2="445.78"/><line class="cls-4" x1="957.86" y1="385.49" x2="957.86" y2="378.98"/><line class="cls-4" x1="961.11" y1="382.23" x2="954.6" y2="382.23"/><line class="cls-4" x1="985.72" y1="445.92" x2="985.72" y2="439.41"/><line class="cls-4" x1="988.97" y1="442.67" x2="982.46" y2="442.67"/><line class="cls-4" x1="888.82" y1="399.45" x2="888.82" y2="392.94"/><line class="cls-4" x1="892.07" y1="396.2" x2="885.57" y2="396.2"/><line class="cls-4" x1="1068.3" y1="385.19" x2="1068.3" y2="378.68"/><line class="cls-4" x1="1071.56" y1="381.93" x2="1065.05" y2="381.93"/><line class="cls-4" x1="951.73" y1="422.71" x2="951.73" y2="414.9"/><line class="cls-4" x1="955.63" y1="418.8" x2="947.82" y2="418.8"/><line class="cls-4" x1="913.92" y1="144.74" x2="913.92" y2="138.23"/><line class="cls-4" x1="917.17" y1="141.48" x2="910.67" y2="141.48"/><line class="cls-4" x1="983.45" y1="162.76" x2="983.45" y2="156.25"/><line class="cls-4" x1="986.7" y1="159.51" x2="980.19" y2="159.51"/><line class="cls-4" x1="1034.87" y1="454.61" x2="1034.87" y2="448.11"/><line class="cls-4" x1="1038.13" y1="451.36" x2="1031.62" y2="451.36"/><line class="cls-4" x1="1068.22" y1="426.33" x2="1068.22" y2="419.82"/><line class="cls-4" x1="1071.48" y1="423.07" x2="1064.97" y2="423.07"/><line class="cls-4" x1="1110.73" y1="399.33" x2="1110.73" y2="392.82"/><line class="cls-4" x1="1113.98" y1="396.08" x2="1107.48" y2="396.08"/><line class="cls-4" x1="833.39" y1="406.28" x2="833.39" y2="399.77"/><line class="cls-4" x1="836.65" y1="403.03" x2="830.14" y2="403.03"/><line class="cls-4" x1="931.94" y1="191.05" x2="931.94" y2="184.54"/><line class="cls-4" x1="935.19" y1="187.79" x2="928.68" y2="187.79"/><line class="cls-4" x1="805.11" y1="455.2" x2="803.29" y2="448.95"/><line class="cls-4" x1="807.32" y1="451.17" x2="801.07" y2="452.99"/><line class="cls-4" x1="860.08" y1="439.47" x2="860.08" y2="432.97"/><line class="cls-4" x1="863.33" y1="436.22" x2="856.82" y2="436.22"/><line class="cls-4" x1="842.35" y1="263.35" x2="836.94" y2="259.74"/><line class="cls-4" x1="841.45" y1="258.83" x2="837.84" y2="264.25"/><path class="cls-5" d="M807.94,375.59a41.71,41.71,0,0,1,52.61-10.37,46.63,46.63,0,0,1,75.94,10.7A35.72,35.72,0,0,1,988.28,405H1021"/><path class="cls-5" d="M897.33,324.53a20.56,20.56,0,0,0-25.93-5.11A23,23,0,0,0,834,324.69,17.61,17.61,0,0,0,808.45,339H792.3"/><path class="cls-5" d="M887.61,300.36a13.83,13.83,0,0,1,17.45-3.44,15.46,15.46,0,0,1,25.19,3.55,11.85,11.85,0,0,1,17.18,9.65h10.87"/><line class="cls-8" x1="1053.06" y1="599.81" x2="1053.06" y2="610.61"/><line class="cls-8" x1="818.34" y1="689.16" x2="818.34" y2="701.08"/><line class="cls-8" x1="818.88" y1="760.16" x2="818.88" y2="819.45"/><line class="cls-8" x1="720.58" y1="624.45" x2="720.58" y2="645.26"/><line class="cls-8" x1="660.98" y1="757.8" x2="660.98" y2="766.38"/><line class="cls-8" x1="782.66" y1="622.38" x2="782.66" y2="645.41"/><line class="cls-8" x1="745.65" y1="564.99" x2="745.65" y2="572.46"/><path class="cls-13" d="M1138.8,648.2a19.09,19.09,0,0,0-14,1.35"/><path class="cls-13" d="M1119.78,679.62a19,19,0,0,0,16.49,5.65,20.87,20.87,0,0,0,2.4-.51,19,19,0,1,0,12.25-30.47,18.71,18.71,0,0,0-2.41.52,19,19,0,0,0-3.5-3.47"/><circle class="cls-13" cx="1136.7" cy="706.9" r="11.42"/><path class="cls-13" d="M1130.46,656.54a14.29,14.29,0,0,0-21.72,5.46,13.81,13.81,0,0,0-3,1.87,14.3,14.3,0,1,0,22,17.05,14.29,14.29,0,0,0,8.42-13"/><path class="cls-13" d="M1112,682.46a14.58,14.58,0,0,0,28.23,5.11,14.57,14.57,0,1,0,10.91-24.22,14.94,14.94,0,0,0-3.88.52,14.56,14.56,0,0,0-20.07-1.78,14.69,14.69,0,0,0-4.57,6.33,14.31,14.31,0,0,0-5.14,2.65"/><path class="cls-13" d="M1114.75,673.84a14.7,14.7,0,0,0-2.27,2.26"/><path class="cls-13" d="M1147.59,674.45a15.84,15.84,0,0,0-25,8.52c-2.22,8.46,4.48,10.86,12.93,13.08a15.84,15.84,0,0,0,4,.52c7.05,0,11.86,1.58,13.74-5.55"/><path class="cls-14" d="M1101.16,670.13c-2,8-.84,13.13-.84,13.13,0,20,16.21,29.61,36.19,29.61a36.2,36.2,0,0,0,9-1.14V695.91c0-12.36-8.4-10.19-20.39-13.18l-11.25-2.82S1102.14,677,1101.16,670.13Z"/><path class="cls-13" d="M1149.68,681.2a16.63,16.63,0,0,0-9.95,7.17,21.49,21.49,0,0,0-3.22,11.34v13.17h0c20,0,36.19-9.62,36.19-29.61,0,0,.26-7.45,0-11.27-.6,4.67-9.55,7.66-15.23,8l-.85.05"/><path class="cls-13" d="M1054.07,552a12.92,12.92,0,0,0-9.47.92"/><path class="cls-13" d="M1041.2,573.22a12.85,12.85,0,0,0,11.16,3.83,14.12,14.12,0,0,0,1.62-.34,12.87,12.87,0,1,0,8.29-20.62,12.66,12.66,0,0,0-1.63.35,12.88,12.88,0,0,0-2.37-2.35"/><circle class="cls-13" cx="1052.65" cy="591.67" r="7.72"/><path class="cls-13" d="M1048.42,557.6a9.67,9.67,0,0,0-14.7,3.69,9.34,9.34,0,0,0-2.06,1.26,10.4,10.4,0,1,0,20.55,2.72"/><path class="cls-13" d="M1036,575.14a9.87,9.87,0,0,0,19.1,3.46,9.86,9.86,0,1,0,7.38-16.39,10.11,10.11,0,0,0-2.63.35,9.85,9.85,0,0,0-13.58-1.2,9.94,9.94,0,0,0-3.09,4.28,9.68,9.68,0,0,0-3.48,1.79"/><path class="cls-13" d="M1037.79,569.31a10,10,0,0,0-1.53,1.53"/><path class="cls-13" d="M1060,569.72a10.71,10.71,0,0,0-16.9,5.76c-1.5,5.72,3,7.35,8.75,8.85a10.72,10.72,0,0,0,2.68.35c4.77,0,8,1.07,9.3-3.76"/><path class="cls-14" d="M1028.6,566.79a21.08,21.08,0,0,0-.57,8.89c0,13.52,11,20,24.49,20a24.49,24.49,0,0,0,6.12-.77V584.24c0-8.36-5.69-6.89-13.8-8.92l-7.61-1.91S1029.26,571.42,1028.6,566.79Z"/><path class="cls-13" d="M1061.43,574.29a11.25,11.25,0,0,0-6.73,4.85,14.54,14.54,0,0,0-2.18,7.67v8.91h0c13.52,0,24.49-6.51,24.49-20,0,0,.18-5,0-7.63-.4,3.16-6.46,5.18-10.3,5.4l-.57,0"/><path class="cls-13" d="M816.51,643.13a12.49,12.49,0,0,1,9.15.89"/><path class="cls-13" d="M828.95,663.68a12.42,12.42,0,0,1-10.79,3.7,13.65,13.65,0,0,1-1.57-.33,12.44,12.44,0,1,1-8-19.93,12.24,12.24,0,0,1,1.58.34,12.46,12.46,0,0,1,2.29-2.27"/><circle class="cls-13" cx="817.88" cy="681.53" r="7.47"/><path class="cls-13" d="M822,648.59a9.35,9.35,0,0,1,14.21,3.57,9,9,0,0,1,2,1.22A10.06,10.06,0,1,1,818.3,656"/><path class="cls-13" d="M834,665.54a9.54,9.54,0,0,1-18.47,3.34A9.53,9.53,0,1,1,808.4,653a9.77,9.77,0,0,1,2.54.34,9.53,9.53,0,0,1,13.13-1.16,9.61,9.61,0,0,1,3,4.14,9.36,9.36,0,0,1,3.37,1.73"/><path class="cls-13" d="M832.24,659.9a9.62,9.62,0,0,1,1.48,1.48"/><path class="cls-13" d="M810.76,660.3a10.36,10.36,0,0,1,16.34,5.57c1.45,5.53-2.93,7.1-8.46,8.56a10.36,10.36,0,0,1-2.59.34c-4.61,0-7.76,1-9-3.63"/><path class="cls-14" d="M841.13,657.47a20.38,20.38,0,0,1,.55,8.59c0,13.07-10.6,19.37-23.67,19.37a23.68,23.68,0,0,1-5.92-.75V674.34c0-8.09,5.5-6.66,13.34-8.62l7.36-1.84S840.49,661.95,841.13,657.47Z"/><path class="cls-13" d="M809.39,664.72a10.88,10.88,0,0,1,6.51,4.69,14.06,14.06,0,0,1,2.11,7.42v8.61h0c-13.08,0-23.67-6.3-23.67-19.37,0,0-.17-4.87,0-7.37.39,3.06,6.25,5,10,5.22l.55,0"/><path class="cls-13" d="M722.08,572.87a14.07,14.07,0,0,0-10.31,1"/><path class="cls-13" d="M708.06,596a14,14,0,0,0,12.15,4.17,15.37,15.37,0,0,0,1.77-.38,14,14,0,1,0,9-22.45,13.78,13.78,0,0,0-1.78.39,14,14,0,0,0-2.58-2.56"/><circle class="cls-13" cx="720.53" cy="616.12" r="8.41"/><path class="cls-13" d="M715.93,579a10.53,10.53,0,0,0-16,4,10.17,10.17,0,0,0-2.25,1.38,11.33,11.33,0,1,0,22.38,3"/><path class="cls-13" d="M702.36,598.12a10.74,10.74,0,0,0,20.8,3.77,10.74,10.74,0,1,0,8-17.85,11,11,0,0,0-2.86.38,10.73,10.73,0,0,0-14.79-1.31,10.82,10.82,0,0,0-3.37,4.67,10.54,10.54,0,0,0-3.79,1.95"/><path class="cls-13" d="M704.35,591.77a10.83,10.83,0,0,0-1.67,1.67"/><path class="cls-13" d="M728.55,592.22a11.67,11.67,0,0,0-18.41,6.28c-1.64,6.23,3.3,8,9.53,9.64a11.67,11.67,0,0,0,2.91.39c5.2,0,8.74,1.17,10.12-4.09"/><path class="cls-14" d="M694.34,589a23,23,0,0,0-.62,9.68c0,14.73,11.94,21.82,26.67,21.82a26.67,26.67,0,0,0,6.67-.84V608c0-9.11-6.19-7.51-15-9.71l-8.29-2.08S695.07,594.07,694.34,589Z"/><path class="cls-13" d="M730.09,597.19a12.25,12.25,0,0,0-7.33,5.28,15.83,15.83,0,0,0-2.38,8.35v9.7h0c14.73,0,26.67-7.09,26.67-21.82,0,0,.19-5.49,0-8.3-.44,3.44-7,5.64-11.22,5.88l-.62,0"/><path class="cls-13" d="M783.69,581.77a10.87,10.87,0,0,0-8,.77"/><path class="cls-13" d="M772.86,599.66a10.81,10.81,0,0,0,9.39,3.22,11.88,11.88,0,0,0,1.37-.29,10.82,10.82,0,1,0,7-17.35,10.65,10.65,0,0,0-1.37.3,10.84,10.84,0,0,0-2-2"/><circle class="cls-13" cx="782.5" cy="615.19" r="6.5"/><path class="cls-13" d="M778.94,586.52a8.14,8.14,0,0,0-12.37,3.11,7.86,7.86,0,0,0-1.73,1.06A8.75,8.75,0,1,0,782.13,593"/><path class="cls-13" d="M768.46,601.28a8.3,8.3,0,0,0,16.07,2.91,8.3,8.3,0,1,0,6.21-13.79,8.5,8.5,0,0,0-2.21.3,8.29,8.29,0,0,0-11.42-1,8.36,8.36,0,0,0-2.6,3.6,8.15,8.15,0,0,0-2.93,1.51"/><path class="cls-13" d="M770,596.37a8.37,8.37,0,0,0-1.29,1.29"/><path class="cls-13" d="M788.69,596.72a9,9,0,0,0-14.22,4.85c-1.27,4.81,2.55,6.18,7.36,7.45a9,9,0,0,0,2.25.3c4,0,6.75.9,7.82-3.16"/><path class="cls-14" d="M762.26,594.26a17.74,17.74,0,0,0-.48,7.48c0,11.38,9.23,16.86,20.6,16.86a20.61,20.61,0,0,0,5.15-.65v-9c0-7-4.78-5.8-11.61-7.51l-6.41-1.6S762.82,598.15,762.26,594.26Z"/><path class="cls-13" d="M789.88,600.56a9.47,9.47,0,0,0-5.66,4.08,12.23,12.23,0,0,0-1.84,6.45v7.5h0c11.38,0,20.6-5.48,20.6-16.86,0,0,.15-4.24,0-6.42-.34,2.66-5.44,4.36-8.67,4.54l-.48,0"/><path class="cls-13" d="M746.6,525.83a10.34,10.34,0,0,0-7.58.73"/><path class="cls-13" d="M736.3,542.86a10.29,10.29,0,0,0,8.94,3.06,11.31,11.31,0,0,0,1.3-.28,10.3,10.3,0,1,0,6.64-16.51,10.14,10.14,0,0,0-1.31.28,10.32,10.32,0,0,0-1.9-1.88"/><circle class="cls-13" cx="745.47" cy="557.64" r="6.19"/><path class="cls-13" d="M742.08,530.35a7.75,7.75,0,0,0-11.77,3,7.48,7.48,0,0,0-1.65,1,8.33,8.33,0,1,0,16.46,2.18"/><path class="cls-13" d="M732.1,544.4a7.9,7.9,0,0,0,15.3,2.77A7.9,7.9,0,1,0,753.32,534a8.1,8.1,0,0,0-2.11.28,7.89,7.89,0,0,0-10.88-1,8,8,0,0,0-2.48,3.43,7.75,7.75,0,0,0-2.79,1.43"/><path class="cls-13" d="M733.57,539.72a8,8,0,0,0-1.23,1.23"/><path class="cls-13" d="M751.37,540.06a8.58,8.58,0,0,0-13.54,4.62c-1.2,4.58,2.43,5.88,7,7.09A8.58,8.58,0,0,0,747,552c3.82,0,6.43.86,7.45-3"/><path class="cls-14" d="M726.21,537.71a16.89,16.89,0,0,0-.46,7.12c0,10.83,8.78,16,19.61,16a19.62,19.62,0,0,0,4.9-.62v-8.57c0-6.7-4.55-5.52-11.05-7.14l-6.1-1.53S726.74,541.42,726.21,537.71Z"/><path class="cls-13" d="M752.5,543.71a9,9,0,0,0-5.39,3.88,11.65,11.65,0,0,0-1.75,6.14v7.14h0c10.83,0,19.61-5.22,19.61-16,0,0,.14-4,0-6.11-.32,2.53-5.18,4.15-8.25,4.32l-.46,0"/><path class="cls-13" d="M1122.36,448a12.92,12.92,0,0,1,9.47.92"/><path class="cls-13" d="M1135.23,469.29a12.85,12.85,0,0,1-11.16,3.83,14.12,14.12,0,0,1-1.62-.34,12.87,12.87,0,1,1-8.29-20.62,12.66,12.66,0,0,1,1.63.35,12.88,12.88,0,0,1,2.37-2.35"/><circle class="cls-13" cx="1123.78" cy="487.74" r="7.72"/><path class="cls-13" d="M1128,453.67a9.67,9.67,0,0,1,14.7,3.69,9.34,9.34,0,0,1,2.06,1.26,9.67,9.67,0,1,1-14.86,11.54,9.67,9.67,0,0,1-5.7-8.82"/><path class="cls-13" d="M1140.47,471.21a9.87,9.87,0,0,1-19.1,3.46,9.86,9.86,0,1,1-7.38-16.39,10.11,10.11,0,0,1,2.63.35,9.85,9.85,0,0,1,13.58-1.2,9.94,9.94,0,0,1,3.09,4.28,9.68,9.68,0,0,1,3.48,1.79"/><path class="cls-13" d="M1138.64,465.38a10,10,0,0,1,1.53,1.53"/><path class="cls-13" d="M1116.42,465.79a10.71,10.71,0,0,1,16.9,5.76c1.5,5.72-3,7.35-8.75,8.85a10.72,10.72,0,0,1-2.68.35c-4.77,0-8,1.07-9.3-3.76"/><path class="cls-14" d="M1147.83,462.86a21.08,21.08,0,0,1,.57,8.89c0,13.52-11,20-24.49,20a24.49,24.49,0,0,1-6.12-.77V480.31c0-8.36,5.69-6.89,13.8-8.92l7.61-1.91S1147.17,467.49,1147.83,462.86Z"/><path class="cls-13" d="M1115,470.36a11.25,11.25,0,0,1,6.73,4.85,14.54,14.54,0,0,1,2.18,7.67v8.91h0c-13.52,0-24.49-6.51-24.49-20,0,0-.18-5,0-7.63.4,3.16,6.46,5.18,10.3,5.4l.57,0"/><path class="cls-13" d="M659.48,699.87A15.77,15.77,0,0,1,671,701"/><path class="cls-13" d="M675.18,725.83a15.68,15.68,0,0,1-13.62,4.67,17.24,17.24,0,0,1-2-.42,15.71,15.71,0,1,1-10.12-25.17,15.45,15.45,0,0,1,2,.43,15.73,15.73,0,0,1,2.89-2.87"/><circle class="cls-13" cx="661.21" cy="748.36" r="9.43"/><path class="cls-13" d="M666.37,706.77a11.81,11.81,0,0,1,17.94,4.51,11.4,11.4,0,0,1,2.52,1.54,12.7,12.7,0,1,1-25.09,3.32"/><path class="cls-13" d="M681.58,728.17a12,12,0,0,1-23.32,4.22,12,12,0,1,1-9-20,12.34,12.34,0,0,1,3.21.43A12,12,0,0,1,669,711.35a12.13,12.13,0,0,1,3.78,5.23,11.82,11.82,0,0,1,4.25,2.18"/><path class="cls-13" d="M679.34,721.05a12.14,12.14,0,0,1,1.87,1.87"/><path class="cls-13" d="M652.22,721.56a13.08,13.08,0,0,1,20.64,7c1.84,7-3.7,9-10.68,10.8a13.08,13.08,0,0,1-3.27.43c-5.82,0-9.8,1.31-11.35-4.59"/><path class="cls-14" d="M690.57,718c1.65,6.58.7,10.85.7,10.85,0,16.51-13.39,24.46-29.89,24.46a29.9,29.9,0,0,1-7.47-.94V739.28c0-10.21,6.94-8.41,16.84-10.89l9.3-2.33S689.75,723.63,690.57,718Z"/><path class="cls-13" d="M650.49,727.13a13.74,13.74,0,0,1,8.21,5.92,17.75,17.75,0,0,1,2.66,9.36v10.88h0c-16.51,0-29.89-7.95-29.89-24.46,0,0-.22-6.15,0-9.31.49,3.86,7.89,6.33,12.58,6.59l.7,0"/><path class="cls-13" d="M1189.17,580.81a19.09,19.09,0,0,1,14,1.35"/><path class="cls-13" d="M1208.19,612.23a19,19,0,0,1-16.49,5.65,20.87,20.87,0,0,1-2.4-.51A19,19,0,1,1,1177,586.9a18.71,18.71,0,0,1,2.41.52,19,19,0,0,1,3.5-3.47"/><circle class="cls-13" cx="1191.27" cy="639.51" r="11.42"/><path class="cls-13" d="M1197.51,589.15a14.29,14.29,0,0,1,21.72,5.46,13.81,13.81,0,0,1,3,1.87,14.3,14.3,0,1,1-22,17.05,14.29,14.29,0,0,1-8.42-13"/><path class="cls-13" d="M1215.93,615.07a14.58,14.58,0,0,1-28.23,5.11A14.57,14.57,0,1,1,1176.78,596a14.94,14.94,0,0,1,3.88.52,14.56,14.56,0,0,1,20.07-1.78,14.69,14.69,0,0,1,4.57,6.33,14.31,14.31,0,0,1,5.14,2.65"/><path class="cls-13" d="M1213.23,606.45a14.7,14.7,0,0,1,2.27,2.26"/><path class="cls-13" d="M1180.38,607.06a15.84,15.84,0,0,1,25,8.52c2.22,8.46-4.48,10.86-12.93,13.08a15.84,15.84,0,0,1-4,.52c-7.05,0-11.86,1.58-13.74-5.55"/><path class="cls-14" d="M1226.81,602.74c2,8,.84,13.13.84,13.13,0,20-16.21,29.61-36.19,29.61a36.2,36.2,0,0,1-9-1.14V628.52c0-12.36,8.4-10.19,20.39-13.18l11.25-2.82S1225.83,609.57,1226.81,602.74Z"/><path class="cls-13" d="M1178.29,613.81a16.63,16.63,0,0,1,9.95,7.17,21.49,21.49,0,0,1,3.22,11.34v13.17h0c-20,0-36.19-9.62-36.19-29.61,0,0-.26-7.45,0-11.27.6,4.67,9.55,7.66,15.23,8l.85.05"/><path class="cls-8" d="M1041.41,707.57v70.19a26.58,26.58,0,0,0,53.16,0v-6.82"/><path class="cls-13" d="M1038.66,624.44a23,23,0,0,1,16.83,1.63"/><path class="cls-13" d="M1061.53,662.23a22.84,22.84,0,0,1-19.84,6.8,25.1,25.1,0,0,1-2.89-.61,22.87,22.87,0,1,1-14.74-36.65,22.5,22.5,0,0,1,2.9.63,22.9,22.9,0,0,1,4.21-4.18"/><circle class="cls-13" cx="1041.18" cy="695.04" r="13.73"/><path class="cls-13" d="M1048.69,634.47a17.19,17.19,0,0,1,26.13,6.57,16.61,16.61,0,0,1,3.66,2.25,17.2,17.2,0,1,1-26.41,20.51A17.18,17.18,0,0,1,1042,648.12"/><path class="cls-13" d="M1070.84,665.65a17.54,17.54,0,0,1-34,6.15,17.53,17.53,0,1,1-13.13-29.13,18,18,0,0,1,4.67.63,17.51,17.51,0,0,1,24.14-2.14,17.67,17.67,0,0,1,5.5,7.62,17.21,17.21,0,0,1,6.19,3.18"/><path class="cls-13" d="M1067.59,655.28a17.68,17.68,0,0,1,2.73,2.72"/><path class="cls-13" d="M1028.09,656a19,19,0,0,1,30,10.25c2.67,10.17-5.39,13.06-15.56,15.73a19,19,0,0,1-4.76.63c-8.48,0-14.27,1.9-16.52-6.68"/><path class="cls-14" d="M1083.93,650.81c2.4,9.58,1,15.8,1,15.8,0,24-19.49,35.62-43.53,35.62a43.54,43.54,0,0,1-10.88-1.37v-19c0-14.87,10.11-12.25,24.53-15.86l13.53-3.39S1082.75,659,1083.93,650.81Z"/><path class="cls-13" d="M1025.57,664.13c4.91,1.44,9.13,4.06,12,8.62a25.85,25.85,0,0,1,3.88,13.63v15.84h0c-24,0-43.53-11.58-43.53-35.62,0,0-.32-9,0-13.56.72,5.62,11.49,9.21,18.32,9.6l1,.07"/><path class="cls-8" d="M1094.57,770.94a17.79,17.79,0,1,0-17.79,17.79h35.58"/><path class="cls-8" d="M1075.55,725.85a17.26,17.26,0,0,1-29.9,0,17.26,17.26,0,0,1,29.9,0Z"/><line class="cls-8" x1="1053.56" y1="725.87" x2="1067.81" y2="725.87"/><path class="cls-8" d="M1038.35,732.74a21.46,21.46,0,0,1-37.16,0,21.46,21.46,0,0,1,37.16,0Z"/><line class="cls-8" x1="1011.01" y1="732.77" x2="1028.73" y2="732.77"/><line class="cls-9" x1="998.72" y1="673.35" x2="1005.01" y2="673.35"/><line class="cls-9" x1="1000.29" y1="680.76" x2="1006.93" y2="680.76"/><line class="cls-9" x1="1005.66" y1="688.17" x2="1015.61" y2="688.17"/><line class="cls-9" x1="1014.18" y1="695.58" x2="1024.13" y2="695.58"/><line class="cls-9" x1="1083.8" y1="673.35" x2="1077.47" y2="673.35"/><line class="cls-9" x1="1082.21" y1="680.76" x2="1075.54" y2="680.76"/><line class="cls-9" x1="1076.83" y1="688.17" x2="1066.82" y2="688.17"/><line class="cls-9" x1="1068.27" y1="695.58" x2="1058.27" y2="695.58"/><path class="cls-8" d="M747.78,715.86v66.08a22.5,22.5,0,0,0,45,0v-5.77"/><path class="cls-13" d="M745.45,645.5a19.43,19.43,0,0,1,14.24,1.38"/><path class="cls-13" d="M764.81,677.48A19.33,19.33,0,0,1,748,683.24a21.24,21.24,0,0,1-2.44-.52,19.36,19.36,0,1,1-12.48-31,19,19,0,0,1,2.45.53,19.39,19.39,0,0,1,3.57-3.54"/><circle class="cls-13" cx="747.59" cy="705.25" r="11.62"/><path class="cls-13" d="M753.94,654a14.55,14.55,0,0,1,22.11,5.56,14.05,14.05,0,0,1,3.1,1.9,14.55,14.55,0,1,1-22.35,17.36,14.55,14.55,0,0,1-8.57-13.26"/><path class="cls-13" d="M772.69,680.37A14.84,14.84,0,0,1,744,685.58a14.84,14.84,0,1,1-11.11-24.66,15.21,15.21,0,0,1,4,.53,14.82,14.82,0,0,1,20.43-1.81,15,15,0,0,1,4.65,6.45,14.57,14.57,0,0,1,5.24,2.69"/><path class="cls-13" d="M769.94,671.6a15,15,0,0,1,2.31,2.3"/><path class="cls-13" d="M736.5,672.22a16.12,16.12,0,0,1,25.43,8.67c2.26,8.61-4.56,11.05-13.17,13.32a16.12,16.12,0,0,1-4,.53c-7.18,0-12.08,1.61-14-5.65"/><path class="cls-14" d="M783.77,667.82c2,8.1.86,13.37.86,13.37,0,20.34-16.5,30.15-36.84,30.15a36.85,36.85,0,0,1-9.21-1.16V694.07c0-12.58,8.55-10.37,20.76-13.42l11.46-2.87S782.77,674.78,783.77,667.82Z"/><path class="cls-13" d="M734.38,679.09a16.93,16.93,0,0,1,10.12,7.3,21.88,21.88,0,0,1,3.28,11.54v13.41h0c-20.35,0-36.84-9.8-36.84-30.15,0,0-.27-7.59,0-11.47.61,4.76,9.72,7.8,15.5,8.12l.86.06"/><path class="cls-8" d="M792.78,776.17a15.06,15.06,0,0,0-30.11,0c0,8.32,6.74,15.06,17.28,15.06h39"/><path class="cls-8" d="M776.68,731.33a14.61,14.61,0,0,1-25.31,0,14.61,14.61,0,0,1,25.31,0Z"/><line class="cls-8" x1="758.06" y1="731.35" x2="770.13" y2="731.35"/><path class="cls-8" d="M745.19,731.61a18.16,18.16,0,0,1-31.45,0,18.16,18.16,0,0,1,31.45,0Z"/><line class="cls-8" x1="722.05" y1="731.63" x2="737.04" y2="731.63"/><line class="cls-9" x1="711.65" y1="686.89" x2="716.97" y2="686.89"/><line class="cls-9" x1="712.98" y1="693.17" x2="718.6" y2="693.17"/><line class="cls-9" x1="717.52" y1="699.44" x2="725.94" y2="699.44"/><line class="cls-9" x1="724.73" y1="705.71" x2="733.15" y2="705.71"/><line class="cls-9" x1="783.66" y1="686.89" x2="778.3" y2="686.89"/><line class="cls-9" x1="782.32" y1="693.17" x2="776.67" y2="693.17"/><line class="cls-9" x1="777.76" y1="699.44" x2="769.29" y2="699.44"/><line class="cls-9" x1="770.52" y1="705.71" x2="762.05" y2="705.71"/><path class="cls-8" d="M1133.49,731.76a12.81,12.81,0,0,1-22.19,0,12.81,12.81,0,0,1,22.19,0Z"/><line class="cls-8" x1="1117.16" y1="731.78" x2="1127.74" y2="731.78"/><path class="cls-8" d="M1165.69,732.51a15.39,15.39,0,0,1-26.65,0,15.39,15.39,0,0,1,26.65,0Z"/><line class="cls-8" x1="1146.09" y1="732.53" x2="1158.79" y2="732.53"/><path class="cls-8" d="M1225.64,664.22a17.26,17.26,0,0,1-29.9,0,17.26,17.26,0,0,1,29.9,0Z"/><line class="cls-8" x1="1203.64" y1="664.24" x2="1217.9" y2="664.24"/><path class="cls-8" d="M1272.09,749.57a13.24,13.24,0,0,1-22.93,0,13.24,13.24,0,0,1,22.93,0Z"/><line class="cls-8" x1="1255.22" y1="749.59" x2="1266.15" y2="749.59"/><path class="cls-8" d="M1121.87,636a10.86,10.86,0,0,1-18.82,0,10.86,10.86,0,0,1,18.82,0Z"/><line class="cls-8" x1="1108.03" y1="636.04" x2="1117" y2="636.04"/><path class="cls-8" d="M841.56,767.06a11.9,11.9,0,0,1-20.61,0,11.9,11.9,0,0,1,20.61,0Z"/><line class="cls-8" x1="826.4" y1="767.07" x2="836.23" y2="767.07"/><path class="cls-8" d="M841.56,693.54a11.9,11.9,0,0,1-20.61,0,11.9,11.9,0,0,1,20.61,0Z"/><line class="cls-8" x1="826.4" y1="693.55" x2="836.23" y2="693.55"/><path class="cls-8" d="M1147.65,500.37a11.9,11.9,0,0,1-20.61,0,11.9,11.9,0,0,1,20.61,0Z"/><line class="cls-8" x1="1132.48" y1="500.38" x2="1142.31" y2="500.38"/><path class="cls-8" d="M1111.28,557.2a8.58,8.58,0,0,1-14.87,0,8.58,8.58,0,0,1,14.87,0Z"/><line class="cls-8" x1="1100.34" y1="557.21" x2="1107.43" y2="557.21"/><path class="cls-8" d="M1050.38,605.11a11.9,11.9,0,0,1-20.61,0,11.9,11.9,0,0,1,20.61,0Z"/><line class="cls-8" x1="1035.22" y1="605.13" x2="1045.04" y2="605.13"/><path class="cls-8" d="M1144.93,585.93a10.82,10.82,0,0,1-18.73,0,10.82,10.82,0,0,1,18.73,0Z"/><line class="cls-8" x1="1131.14" y1="585.94" x2="1140.08" y2="585.94"/><path class="cls-8" d="M743.4,630.12a11.9,11.9,0,0,1-20.61,0,11.9,11.9,0,0,1,20.61,0Z"/><line class="cls-8" x1="728.24" y1="630.13" x2="738.07" y2="630.13"/><path class="cls-8" d="M805.36,627.8a11.9,11.9,0,0,1-20.61,0,11.9,11.9,0,0,1,20.61,0Z"/><line class="cls-8" x1="790.2" y1="627.82" x2="800.02" y2="627.82"/><path class="cls-8" d="M781.06,627.8a11.9,11.9,0,0,1-20.61,0,11.9,11.9,0,0,1,20.61,0Z"/><line class="cls-8" x1="765.9" y1="627.82" x2="775.73" y2="627.82"/><path class="cls-8" d="M817.65,767.06a11.9,11.9,0,0,1-20.61,0,11.9,11.9,0,0,1,20.61,0Z"/><line class="cls-8" x1="802.49" y1="767.07" x2="812.31" y2="767.07"/><path class="cls-13" d="M678.1,674.91a3.92,3.92,0,0,0,7.82,0"/><path class="cls-4" d="M692,647.38l-.11.65c-2,11.89-2.87,10.61-2.61,22.69v.57s0,.07,0,.1c0,2.18-3.32,4-7.41,4s-7.41-1.77-7.41-4c0,0,0-.07,0-.1q.07-2.65.07-5.31c0-10.68-.89-8-2.65-18.52l-.09-.55a76.43,76.43,0,0,1-1.15-16.25l.11-3.1c0,2.18,5,4,11.11,4s11.11-1.77,11.11-4l.12,2.62A77.29,77.29,0,0,1,692,647.38Z"/><circle class="cls-4" cx="681.91" cy="642.96" r="6.37"/><line class="cls-8" x1="682.01" y1="678.61" x2="682.01" y2="693.62"/><path class="cls-8" d="M701.67,683.5a10,10,0,0,1-17.25,0,10,10,0,0,1,17.25,0Z"/><line class="cls-8" x1="688.98" y1="683.52" x2="697.2" y2="683.52"/><path class="cls-8" d="M679.47,685.33a11.17,11.17,0,0,1-19.35,0,11.17,11.17,0,0,1,19.35,0Z"/><line class="cls-8" x1="665.24" y1="685.34" x2="674.46" y2="685.34"/><path class="cls-8" d="M1244.19,753.72a16,16,0,0,1-27.64,0,16,16,0,0,1,27.64,0Z"/><line class="cls-8" x1="1223.85" y1="753.74" x2="1237.03" y2="753.74"/><line class="cls-8" x1="1191.3" y1="651.07" x2="1191.3" y2="793.17"/><line class="cls-8" x1="1246.72" y1="740.01" x2="1246.72" y2="797.27"/><line class="cls-8" x1="1123.85" y1="495.99" x2="1123.85" y2="512.46"/><path class="cls-13" d="M1148.24,527.61a14.37,14.37,0,0,0-10.53,1"/><path class="cls-13" d="M1133.93,551.25a14.29,14.29,0,0,0,12.41,4.25,15.7,15.7,0,0,0,1.81-.38,14.31,14.31,0,1,0,9.22-22.93,14.08,14.08,0,0,0-1.81.39,14.33,14.33,0,0,0-2.64-2.61"/><circle class="cls-13" cx="1146.66" cy="571.78" r="8.59"/><path class="cls-13" d="M1142,533.89a10.76,10.76,0,0,0-16.35,4.11,10.39,10.39,0,0,0-2.29,1.41,11.57,11.57,0,1,0,22.86,3"/><path class="cls-13" d="M1128.1,553.39a11,11,0,0,0,21.25,3.85,11,11,0,1,0,8.21-18.23,11.24,11.24,0,0,0-2.92.39,11,11,0,0,0-15.1-1.34,11.06,11.06,0,0,0-3.44,4.77,10.77,10.77,0,0,0-3.87,2"/><path class="cls-13" d="M1130.14,546.9a11.06,11.06,0,0,0-1.71,1.7"/><path class="cls-13" d="M1154.86,547.37a11.92,11.92,0,0,0-18.8,6.41c-1.67,6.36,3.37,8.17,9.73,9.84a11.92,11.92,0,0,0,3,.39c5.31,0,8.93,1.19,10.34-4.18"/><path class="cls-14" d="M1119.92,544.11a23.45,23.45,0,0,0-.63,9.88c0,15,12.2,22.29,27.24,22.29a27.24,27.24,0,0,0,6.81-.86V563.51c0-9.3-6.32-7.67-15.35-9.92l-8.47-2.12S1120.65,549.25,1119.92,544.11Z"/><path class="cls-13" d="M1156.43,552.45a12.51,12.51,0,0,0-7.48,5.39,16.17,16.17,0,0,0-2.43,8.53v9.91h0c15,0,27.24-7.24,27.24-22.29,0,0,.2-5.61,0-8.48-.45,3.52-7.19,5.77-11.46,6l-.64,0"/><line class="cls-8" x1="1146.64" y1="580.97" x2="1146.64" y2="630.68"/><line class="cls-8" x1="1217.98" y1="779.83" x2="1217.98" y2="793.17"/><line class="cls-8" x1="1136.35" y1="718.68" x2="1136.35" y2="766.49"/><line class="cls-8" x1="1112.36" y1="768.71" x2="1112.36" y2="816.52"/><path class="cls-8" d="M1151.91,750.93a15.56,15.56,0,1,1-15.56,15.56"/><path class="cls-8" d="M1112.36,768.71a17.79,17.79,0,0,1,17.79-17.79"/><line class="cls-8" x1="1152.39" y1="750.93" x2="1130.15" y2="750.93"/><path class="cls-8" d="M1191.19,696.15a8.89,8.89,0,1,1,8.89,8.89"/><path class="cls-8" d="M1191.19,715.16A10.12,10.12,0,1,1,1181.07,705"/><line class="cls-8" x1="1200.08" y1="705.05" x2="1180.94" y2="705.05"/><path class="cls-8" d="M1218,793.17a13.34,13.34,0,0,1-26.68,0"/><path class="cls-8" d="M1218,779.83a8.89,8.89,0,1,1,8.89,8.89"/><line class="cls-8" x1="1226.87" y1="788.72" x2="1111.25" y2="788.72"/><path class="cls-10" d="M1115.47,593.31l-5.12,28.6c0,2.86-4.63,5.17-10.34,5.17s-10.34-2.31-10.34-5.17l-5.12-28.6c.62,2.67,7.31,4.76,15.46,4.76S1114.84,596,1115.47,593.31Z"/><path class="cls-10" d="M1115.52,592.91a1.83,1.83,0,0,1,0,.4Z"/><path class="cls-10" d="M1115.52,592.9l0,.4h0c-.62,2.66-7.3,4.77-15.46,4.77s-14.84-2.1-15.46-4.77h0l0-.4a1.51,1.51,0,0,1,0-.35,4.17,4.17,0,0,1-.11-.94,4.48,4.48,0,0,1,4.48-4.48,4.17,4.17,0,0,1,1,.13,5.34,5.34,0,0,1,5.22-4.24,5.28,5.28,0,0,1,4.16,2,4.55,4.55,0,0,1,1.49-.25,4.71,4.71,0,0,0,7.09.56,4.72,4.72,0,0,1,4.35,2.88,4.06,4.06,0,0,1,3.24,3.77S1115.52,592.6,1115.52,592.9Z"/><line class="cls-12" x1="1109.86" y1="597.33" x2="1109.86" y2="601.55"/><line class="cls-12" x1="1106.69" y1="597.54" x2="1106.69" y2="607.47"/><path class="cls-12" d="M1104.92,626.46a2.21,2.21,0,0,1,0,.36c0,2-2.23,3.59-5,3.59s-5-1.61-5-3.59a2.24,2.24,0,0,1,0-.37"/><line class="cls-12" x1="1099.98" y1="630.37" x2="1099.98" y2="656.98"/><path class="cls-8" d="M813.7,755.16a5.29,5.29,0,0,0,5,4.92H819a5.29,5.29,0,0,0,5.29-5.15"/><path class="cls-13" d="M692.62,793.12a5.1,5.1,0,0,0,10.17.05"/><line class="cls-8" x1="697.71" y1="797.94" x2="697.71" y2="818.57"/><path class="cls-8" d="M719,802a11.33,11.33,0,0,1-19.62,0A11.33,11.33,0,0,1,719,802Z"/><line class="cls-8" x1="704.58" y1="802.06" x2="713.93" y2="802.06"/><path class="cls-8" d="M695.85,803.47a11,11,0,0,1-19.09,0,11,11,0,0,1,19.09,0Z"/><line class="cls-8" x1="681.81" y1="803.49" x2="690.91" y2="803.49"/><line class="cls-9" x1="708.9" y1="747.21" x2="708.9" y2="742.92"/><line class="cls-9" x1="707.1" y1="747.95" x2="704.07" y2="744.92"/><line class="cls-9" x1="710.7" y1="751.55" x2="713.72" y2="754.58"/><line class="cls-9" x1="711.44" y1="749.75" x2="715.72" y2="749.75"/><line class="cls-9" x1="710.7" y1="747.95" x2="713.72" y2="744.92"/><circle class="cls-9" cx="697.67" cy="777.01" r="16.59"/><circle class="cls-9" cx="697.67" cy="777.01" r="10.65"/><path class="cls-9" d="M685.59,757.45h24.32a0,0,0,0,1,0,0v1.82a1.15,1.15,0,0,1-1.15,1.15h-22a1.15,1.15,0,0,1-1.15-1.15v-1.82A0,0,0,0,1,685.59,757.45Z"/><path class="cls-9" d="M708.91,757.45H686.59l1.55-4.47a3,3,0,0,1,2.83-2.22l6.73-.62,6.83.62a3,3,0,0,1,2.83,2.22Z"/><polyline class="cls-15" points="708.91 757.45 697.7 750.13 686.59 757.45"/><polyline class="cls-15" points="692.19 753.74 697.43 757.25 703.14 753.74"/><ellipse class="cls-4" cx="1093.45" cy="515.14" rx="14.76" ry="4.92"/><path class="cls-4" d="M1078.69,515.14v8.75a14.76,14.76,0,0,0,14.76,14.76h0a14.76,14.76,0,0,0,14.76-14.76v-8.75c0,2.72-6.61,4.92-14.76,4.92S1078.69,517.86,1078.69,515.14Z"/><path class="cls-4" d="M1099.56,538.08c3.44,1,5.74,2.9,5.74,5,0,3.24-5.26,5.87-11.74,5.87s-11.74-2.63-11.74-5.87c0-2.15,2.3-4,5.74-5"/><path class="cls-4" d="M1099.56,537.33V541c0,1.89-2.72,3.41-6,3.41s-6-1.52-6-3.41v-3.62"/><path class="cls-5" d="M1085.54,507.3c0-6.16,3.61-8,4.11-14.37,4.78,2.42,4.27,7.53,6.32,7.53s1.26-4.07,1.26-4.07,4.73,2.7,4.73,10.91a8.21,8.21,0,0,1-16.43,0Z"/><path class="cls-13" d="M1093.76,513a5.88,5.88,0,0,1-5.88-5.88,11.67,11.67,0,0,1,1.54-5.53"/><path class="cls-8" d="M1092.08,525.3a3.44,3.44,0,0,1-6.42-2.47l2.7,1.45"/><path class="cls-8" d="M1095.32,525.3a3.44,3.44,0,0,0,6.42-2.47l-3.23,1.3"/><path class="cls-13" d="M1098.56,533.68l-1.85-.23a26.16,26.16,0,0,0-6.35,0l-1.93.23a1.75,1.75,0,0,1-2-1.74h0a1.75,1.75,0,0,1,1.54-1.74l2.35-.29a26.16,26.16,0,0,1,6.35,0l2.28.28a1.75,1.75,0,0,1,1.54,1.74h0A1.75,1.75,0,0,1,1098.56,533.68Z"/><path class="cls-12" d="M1099.05,548.77a2.21,2.21,0,0,1,0,.36c0,2-2.23,3.59-5,3.59s-5-1.61-5-3.59a2.24,2.24,0,0,1,0-.37"/><line class="cls-12" x1="1094.11" y1="552.68" x2="1094.11" y2="570.4"/><path class="cls-8" d="M1104.08,534.13a3.62,3.62,0,0,0,.83.26c2.85.48,5.71-2.41,6.38-6.47.6-3.64-.74-7-3.08-8a2.11,2.11,0,0,0-.23-.1"/><path class="cls-8" d="M1078.71,519.86h0c-2.47.88-3.91,4.3-3.29,8,.68,4.06,3.54,6.95,6.38,6.47a3.74,3.74,0,0,0,1-.32"/><polyline class="cls-16" points="974.95 654.71 965.92 655.47 957.08 654.51 948.23 652.17 939.06 650.03 930.42 650.03 921.47 647.69 912.51 647.69 903.77 649.82 894.71 649.82 885.86 652.17 877.22 652.17 868.13 653.99 859.23 653.99 854.4 649.85"/></g></g></g></svg>